# xmcd
# Track frame offsets:
# 150
# 16676
# 30301
# 46282
# 60802
# 76380
# 91710
# 103912
# 118645
# 133975
#
# Disc length: 2053 seconds
# Revision: 0
# Processed by: cddbd v1.4PL0 Copyright (c) Steve Scherf et al.
# Submitted via: VisiTrax 2.9.5.181 - For more info visit www.synapsa.com
#
DISCID=6e08030a
DTITLE=Aslaeep At The Wheel - Ride With Bob
DYEAR=1900
DGENRE=
TTITLE0=Bob's Breakdown
TTITLE1=New San Antonio Rose
TTITLE2=I Ain't Got Nobody w_Don Walse
TTITLE3=Roly Poly
TTITLE4=Heart To Heart Talk w_Lee Ann
TTITLE5=Cherokee Maiden
TTITLE6=Maiden's Prayer
TTITLE7=You're From Texas
TTITLE8=Cherokee Maiden
TTITLE9=Faded Love
EXTD=
EXTT0=
EXTT1=
EXTT2=
EXTT3=
EXTT4=
EXTT5=
EXTT6=
EXTT7=
EXTT8=
EXTT9=
PLAYORDER=
